<?xml version="1.0" encoding="UTF-8" standalone="no"?>
<svg width="72px" height="16px" viewBox="0 0 72 16" version="1.1" xmlns="http://www.w3.org/2000/svg" xmlns:xlink="http://www.w3.org/1999/xlink" xmlns:sketch="http://www.bohemiancoding.com/sketch/ns">
    <!-- Generator: Sketch 3.3.3 (12081) - http://www.bohemiancoding.com/sketch -->
    <title>Power logo</title>
    <desc>Created with Sketch.</desc>
    <defs></defs>
    <g id="Page-1" stroke="none" stroke-width="1" fill="none" fill-rule="evenodd" sketch:type="MSPage">
        <g id="People" sketch:type="MSArtboardGroup" transform="translate(-53.000000, -19.000000)" fill="#FFFFFF">
            <g id="Power-logo" sketch:type="MSLayerGroup" transform="translate(53.000000, 19.000000)">
                <path d="M0.0852786885,0.337380392 L5.29642623,0.337380392 C8.43167213,0.337380392 10.756918,2.76997647 10.756918,5.81057255 C10.756918,8.85146667 8.43167213,11.2837647 5.27577049,11.2837647 L2.97118033,11.2837647 L2.97118033,15.6455686 L0.0852786885,15.6455686 L0.0852786885,0.337380392 L0.0852786885,0.337380392 Z M2.97118033,3.04268235 L2.97118033,8.57876078 L5.08898361,8.57876078 C6.72904918,8.57876078 7.85006557,7.3416 7.85006557,5.81057255 C7.85006557,4.27984314 6.72904918,3.04268235 5.08898361,3.04268235 L2.97118033,3.04268235 L2.97118033,3.04268235 Z" id="Fill-1" sketch:type="MSShapeGroup"></path>
                <path d="M11.8977049,7.99162353 C11.8977049,3.65068235 15.3442623,0.127858824 19.6421311,0.127858824 C23.9606557,0.127858824 27.406918,3.65068235 27.406918,7.99162353 C27.406918,12.3534275 23.9606557,15.8553882 19.6421311,15.8553882 C15.3442623,15.8553882 11.8977049,12.3534275 11.8977049,7.99162353 L11.8977049,7.99162353 Z M24.5419672,7.99162353 C24.5419672,5.24459608 22.3619016,3.00065882 19.6421311,3.00065882 C16.9223607,3.00065882 14.7629508,5.24459608 14.7629508,7.99162353 C14.7629508,10.738651 16.9223607,12.9825882 19.6421311,12.9825882 C22.3619016,12.9825882 24.5419672,10.738651 24.5419672,7.99162353 L24.5419672,7.99162353 Z" id="Fill-2" sketch:type="MSShapeGroup"></path>
                <path d="M27.2605574,0.337380392 L30.2709836,0.337380392 L33.094623,10.9273098 L36.208918,0.337380392 L39.0535082,0.337380392 L42.1675082,10.8855843 L44.9498361,0.337380392 L47.8770492,0.337380392 L43.6001311,15.6455686 L40.7558361,15.6455686 L37.6208852,4.95102745 L34.5062951,15.6455686 L31.5581311,15.6455686 L27.2605574,0.337380392" id="Fill-3" sketch:type="MSShapeGroup"></path>
                <path d="M49.8269508,0.337380392 L58.816918,0.337380392 L58.816918,3.12643137 L52.7131475,3.12643137 L52.7131475,6.56550588 L58.816918,6.56550588 L58.816918,9.35455686 L52.7131475,9.35455686 L52.7131475,12.8565176 L58.816918,12.8565176 L58.816918,15.6455686 L49.8269508,15.6455686 L49.8269508,0.337380392" id="Fill-4" sketch:type="MSShapeGroup"></path>
                <path d="M61.1412787,0.337380392 L65.8959344,0.337380392 C69.3840984,0.337380392 71.4809508,2.58131765 71.4809508,5.47527843 C71.4809508,7.38332549 70.567377,9.24964706 68.5534426,10.0257412 L72,15.6455686 L68.698623,15.6455686 L64.152,8.07537255 L65.5636721,8.07537255 C67.806,8.07537255 68.5743934,6.56550588 68.5743934,5.47527843 C68.5743934,3.94425098 67.7437377,3.0635451 65.5636721,3.0635451 L64.0274754,3.0635451 L64.0274754,15.6455686 L61.1412787,15.6455686 L61.1412787,0.337380392" id="Fill-5" sketch:type="MSShapeGroup"></path>
            </g>
        </g>
    </g>
</svg>