<?xml version="1.0" encoding="UTF-8" standalone="no"?>
<svg width="22px" height="20px" viewBox="0 0 22 20" version="1.1" xmlns="http://www.w3.org/2000/svg" xmlns:xlink="http://www.w3.org/1999/xlink" xmlns:sketch="http://www.bohemiancoding.com/sketch/ns">
    <!-- Generator: Sketch 3.3.3 (12081) - http://www.bohemiancoding.com/sketch -->
    <title>Imported Layers Copy 6</title>
    <desc>Created with Sketch.</desc>
    <defs></defs>
    <g id="Page-1" stroke="none" stroke-width="1" fill="none" fill-rule="evenodd" sketch:type="MSPage">
        <g id="People" sketch:type="MSArtboardGroup" transform="translate(-1316.000000, -18.000000)" fill="#FFFFFF">
            <g id="tools-right" sketch:type="MSLayerGroup" transform="translate(1262.000000, 13.000000)">
                <g id="Imported-Layers-Copy-6" transform="translate(54.000000, 5.500000)" sketch:type="MSShapeGroup">
                    <path d="M16.599,6.98 C15.285,6.98 14.133,7.843 13.787,9.119 L0.065,9.119 L0.065,10.699 L13.787,10.699 C14.133,11.914 15.285,12.838 16.599,12.838 C17.913,12.838 19.065,11.914 19.41,10.699 L21.935,10.699 L21.935,9.119 L19.41,9.119 C19.065,7.843 17.913,6.98 16.599,6.98 L16.599,6.98 Z M16.599,11.262 C15.848,11.262 15.237,10.651 15.237,9.901 C15.237,9.15 15.848,8.539 16.599,8.539 C17.349,8.539 17.96,9.15 17.96,9.901 C17.96,10.651 17.349,11.262 16.599,11.262 L16.599,11.262 Z" id="Fill-1"></path>
                    <path d="M8.639,2.558 C8.293,1.282 7.141,0.419 5.827,0.419 C4.513,0.419 3.361,1.282 3.016,2.558 L0.065,2.558 L0.065,4.077 L3.016,4.077 C3.361,5.353 4.513,6.216 5.827,6.216 C7.141,6.216 8.293,5.353 8.639,4.077 L21.935,4.077 L21.935,2.558 L8.639,2.558 L8.639,2.558 Z M5.827,4.679 C5.077,4.679 4.466,4.068 4.466,3.317 C4.466,2.567 5.077,1.956 5.827,1.956 C6.578,1.956 7.188,2.567 7.188,3.317 C7.188,4.068 6.578,4.679 5.827,4.679 L5.827,4.679 Z" id="Fill-2"></path>
                    <path d="M8.375,13.481 C7.061,13.481 5.91,14.405 5.564,15.62 L0.065,15.62 L0.065,17.199 L5.564,17.199 C5.91,18.475 7.061,19.338 8.375,19.338 C9.69,19.338 10.841,18.475 11.187,17.199 L21.935,17.199 L21.935,15.62 L11.187,15.62 C10.841,14.405 9.69,13.481 8.375,13.481 L8.375,13.481 Z M8.375,17.787 C7.625,17.787 7.014,17.176 7.014,16.426 C7.014,15.675 7.625,15.065 8.375,15.065 C9.126,15.065 9.737,15.675 9.737,16.426 C9.737,17.176 9.126,17.787 8.375,17.787 L8.375,17.787 Z" id="Fill-3"></path>
                </g>
            </g>
        </g>
    </g>
</svg>